<?xml version="1.0" encoding="UTF-8" standalone="no"?>
<!-- Created with Inkscape (http://www.inkscape.org/) -->

<svg
   width="210mm"
   height="297mm"
   viewBox="0 0 210 297"
   version="1.1"
   id="svg5"
   inkscape:version="1.1.1 (1:1.1+202109281946+c3084ef5ed)"
   sodipodi:docname="logo4.svg"
   xmlns:inkscape="http://www.inkscape.org/namespaces/inkscape"
   xmlns:sodipodi="http://sodipodi.sourceforge.net/DTD/sodipodi-0.dtd"
   xmlns="http://www.w3.org/2000/svg"
   xmlns:svg="http://www.w3.org/2000/svg">
  <sodipodi:namedview
     id="namedview7"
     pagecolor="#ffffff"
     bordercolor="#666666"
     borderopacity="1.0"
     inkscape:pageshadow="2"
     inkscape:pageopacity="0.0"
     inkscape:pagecheckerboard="0"
     inkscape:document-units="mm"
     showgrid="false"
     inkscape:zoom="1.2810466"
     inkscape:cx="166.66061"
     inkscape:cy="351.66559"
     inkscape:window-width="1852"
     inkscape:window-height="1136"
     inkscape:window-x="0"
     inkscape:window-y="0"
     inkscape:window-maximized="1"
     inkscape:current-layer="layer1" />
  <defs
     id="defs2">
    <rect
       x="447.83025"
       y="323.82885"
       width="148.95963"
       height="280.74274"
       id="rect18256" />
    <rect
       x="166.03246"
       y="72.962804"
       width="264.81948"
       height="119.07378"
       id="rect5138" />
    <rect
       x="166.03246"
       y="72.962807"
       width="264.81949"
       height="119.07378"
       id="rect5138-1" />
    <rect
       x="166.03246"
       y="72.962807"
       width="264.81949"
       height="119.07378"
       id="rect5138-2" />
    <rect
       x="166.03246"
       y="72.962807"
       width="264.81949"
       height="119.07378"
       id="rect5138-3" />
    <rect
       x="166.03246"
       y="72.962807"
       width="264.81949"
       height="119.07378"
       id="rect5138-8" />
  </defs>
  <g
     inkscape:label="Layer 1"
     inkscape:groupmode="layer"
     id="layer1">
    <text
       xml:space="preserve"
       transform="scale(0.26458333)"
       id="text5136"
       style="font-style:normal;font-weight:normal;font-size:96px;line-height:1.25;font-family:sans-serif;white-space:pre;shape-inside:url(#rect5138);fill:#000000;fill-opacity:1;stroke:none"><tspan
         x="166.0332"
         y="157.90039"
         id="tspan69054"><tspan
           style="font-family:Kalam;-inkscape-font-specification:Kalam"
           id="tspan69052">Heeus</tspan></tspan></text>
    <text
       xml:space="preserve"
       style="font-style:normal;font-weight:normal;font-size:10.5833px;line-height:1.25;font-family:sans-serif;fill:#000000;fill-opacity:1;stroke:none;stroke-width:0.264583"
       x="77.039864"
       y="66.83403"
       id="text16998"><tspan
         sodipodi:role="line"
         id="tspan16996"
         style="stroke-width:0.264583"
         x="77.039864"
         y="66.83403">      </tspan></text>
    <text
       xml:space="preserve"
       transform="scale(0.26458333)"
       id="text18254"
       style="fill:black;fill-opacity:1;line-height:1.25;stroke:none;font-family:sans-serif;font-style:normal;font-weight:normal;font-size:40px;white-space:pre;shape-inside:url(#rect18256)" />
    <text
       xml:space="preserve"
       style="font-style:normal;font-weight:normal;font-size:10.5833px;line-height:1.25;font-family:sans-serif;fill:#000000;fill-opacity:1;stroke:none;stroke-width:0.264583"
       x="106.4875"
       y="64.652489"
       id="text27360"><tspan
         sodipodi:role="line"
         id="tspan27358"
         style="stroke-width:0.264583"></tspan></text>
    <g
       aria-label="Heeus"
       transform="matrix(0.26458333,0,0,0.26458333,-0.76053565,32.117206)"
       id="text5136-1"
       style="font-size:96px;line-height:1.25;white-space:pre;shape-inside:url(#rect5138-8)">
      <path
         d="m 184.08097,156.62515 q -1.16418,0 -3.70121,-2.52239 -2.55624,-2.6194 -3.0175,-4.94776 -0.46126,-2.32836 0.50165,-19.01493 -1.3573,-0.48508 -2.55807,-1.64926 -1.12299,-1.26119 -1.43049,-2.81343 -0.24986,-1.2612 4.4874,-2.81344 1.46453,-25.41792 0.2537,-31.529864 -0.32674,-1.649254 -0.054,-2.231344 0.35054,-0.679105 1.61173,-0.679105 1.35821,0 4.08835,3.007464 2.82714,3.007465 3.57669,6.791049 0.73036,3.68657 -0.31404,22.41046 12.28705,-2.61941 24.45421,-3.39553 0.95012,-20.17911 -0.18383,-25.902994 -0.57659,-2.910449 1.36371,-2.910449 1.64926,0 4.47641,3.007464 2.82715,3.007465 3.48061,6.305974 0.63423,3.201495 -0.46414,19.694035 4.59723,0.67911 5.00083,2.71642 0.3844,1.9403 -5.38069,3.2015 -0.83662,11.44776 -1.1162,15.91045 -0.20225,4.36568 -0.36248,6.98508 -0.16017,2.61941 -0.41738,5.23881 -0.3396,5.14179 -1.40672,5.14179 -1.3582,0 -3.64353,-2.23134 -2.20756,-2.32836 -2.68803,-4.75373 -0.48048,-2.42538 0.88147,-24.93285 -13.77979,1.9403 -24.63085,4.46269 -0.35832,5.04477 -0.67834,9.79851 -0.24161,4.65672 -0.40184,7.27612 -0.16017,2.61941 -0.41738,5.23881 -0.3396,5.14179 -1.30972,5.14179 z"
         style="font-family:Kalam;-inkscape-font-specification:Kalam;stroke-width:1.01057"
         id="path65160" />
      <path
         d="m 270.53343,124.78039 q 0.71072,5.088 -4.40136,8.352 -5.02948,3.168 -12.03748,3.168 -6.912,0 -12.79056,-1.536 -0.75396,4.224 -0.28464,7.584 0.45592,3.264 2.72672,5.088 2.36676,1.824 7.07076,1.824 4.8,0 9.56404,-1.632 4.84664,-1.728 5.32664,-1.728 2.496,0 2.7642,1.92 0.36203,2.592 -5.06484,5.664 -5.44032,2.976 -11.00832,2.976 -7.488,0 -12.80884,-4.416 -5.33424,-4.512 -6.28632,-11.328 -0.95208,-6.816 1.6634,-14.208 2.60204,-7.488 7.65132,-12.576 5.04932,-5.088 10.71332,-5.088 5.664,0 11.02292,5.376 5.45492,5.376 6.17904,10.56 z m -15.6626,-8.352 q -3.552,0 -6.86904,3.744 -3.33044,3.648 -5.25408,9.12 3.96068,0.864 8.85668,0.864 4.896,0 8.32944,-1.536 3.42004,-1.632 3.05796,-4.224 -0.36203,-2.592 -3.13752,-5.28 -2.67944,-2.688 -4.98344,-2.688 z"
         style="font-family:Kalam;-inkscape-font-specification:Kalam"
         id="path65162" />
      <path
         d="m 315.38272,124.78039 q -0.35536,5.088 -6.15132,8.352 -5.69326,3.168 -12.70126,3.168 -6.912,0 -12.46872,-1.536 -1.63902,4.224 -1.87368,7.584 -0.22796,3.264 1.66064,5.088 1.98462,1.824 6.68862,1.824 4.8,0 9.90598,-1.632 5.20868,-1.728 5.68868,-1.728 2.496,0 2.3619,1.92 -0.18101,2.592 -6.25158,5.664 -6.06384,2.976 -11.63184,2.976 -7.488,0 -11.88358,-4.416 -4.38888,-4.512 -3.91284,-11.328 0.47604,-6.816 4.6403,-14.208 4.17098,-7.488 10.28634,-12.576 6.11534,-5.088 11.77934,-5.088 5.664,0 9.89654,5.376 4.32854,5.376 3.96648,10.56 z m -13.9127,-8.352 q -3.552,0 -7.65348,3.744 -4.09478,3.648 -7.16496,9.12 3.77966,0.864 8.67566,0.864 4.896,0 8.65128,-1.536 3.76198,-1.632 3.94302,-4.224 0.18101,-2.592 -2.03124,-5.28 -2.11628,-2.688 -4.42028,-2.688 z"
         style="font-family:Kalam;-inkscape-font-specification:Kalam"
         id="path65164" />
      <path
         d="m 355.5608,111.53239 q 0.51839,-1.536 0.95279,-2.112 0.4344,-0.576 1.6824,-0.576 1.344,0 2.94961,2.496 1.70161,2.496 1.49999,4.8 -0.10918,1.248 -5.51758,14.784 -5.40839,13.536 -8.40959,21.504 -1.50479,4.032 -3.61679,4.032 -1.248,0 -2.0196,-1.056 -0.77159,-1.056 -0.52801,-3.84 0.24361,-2.784 3.08999,-10.08 -4.60319,6.528 -9.67679,10.752 -5.07359,4.224 -9.00959,4.224 -3.84,0 -6.97681,-3.648 -3.13679,-3.648 -2.80081,-7.488 0.798,-9.12 7.27079,-22.752 6.57719,-13.728 10.12919,-13.728 1.728,0 2.83321,1.632 1.2096,1.536 1.0332,3.552 -0.0756,0.864 -3.13799,6.24 -3.054,5.28 -6.27599,12.48 -3.2136,7.104 -3.68401,12.48 -0.13434,1.536 0.73321,2.592 0.87601,0.96 2.22001,0.96 3.648,0 9.20278,-6.432 5.6508,-6.432 10.5264,-14.976 4.87558,-8.544 7.52999,-15.84 z"
         style="font-family:Kalam;-inkscape-font-specification:Kalam"
         id="path65166" />
      <path
         d="m 399.60263,108.84439 q 3.264,0 5.18757,3.648 1.94874,3.552 1.24403,6.24 -0.42787,1.632 -1.96387,1.632 -1.056,0 -2.83613,-1.632 -1.75497,-1.728 -4.05897,-1.728 -2.304,0 -8.00074,2.688 -5.60071,2.688 -6.38096,5.664 -0.57888,2.208 6.84363,7.584 2.8063,2.112 4.61339,5.472 1.92822,3.264 0.92148,7.104 -0.98158,3.744 -7.21804,7.392 -6.11523,3.552 -13.12323,3.552 -6.912,0 -11.40709,-3.36 -4.3991,-3.36 -3.61884,-6.336 0.3272,-1.248 1.07939,-1.92 0.87336,-0.768 1.83336,-0.768 0.96,0 2.36077,1.248 4.20242,3.744 9.77042,3.744 5.664,0 8.48719,-1.248 2.84839,-1.344 3.4021,-3.456 0.57888,-2.208 -1.5759,-4.608 -2.12958,-2.496 -4.98622,-4.416 -2.76061,-1.92 -4.81471,-4.704 -2.05409,-2.784 -1.29903,-5.664 1.33398,-5.088 10.73659,-10.56 9.52381,-5.568 14.80381,-5.568 z"
         style="font-family:Kalam;-inkscape-font-specification:Kalam"
         id="path65168" />
    </g>
    <g
       aria-label="Heeus"
       transform="matrix(0.26458333,0,0,0.26458333,-2.1413733,60.41718)"
       id="text5136-1-0"
       style="font-size:96px;line-height:1.25;white-space:pre;shape-inside:url(#rect5138-8)">
      <path
         d="m 184.08097,156.62515 q -1.16418,0 -3.70121,-2.52239 -2.55624,-2.6194 -3.0175,-4.94776 -0.46126,-2.32836 0.50165,-19.01493 -1.3573,-0.48508 -2.55807,-1.64926 -1.12299,-1.26119 -1.43049,-2.81343 -0.24986,-1.2612 4.4874,-2.81344 1.46453,-25.41792 0.2537,-31.529864 -0.32674,-1.649254 -0.054,-2.231344 0.35054,-0.679105 1.61173,-0.679105 1.35821,0 4.08835,3.007464 2.82714,3.007465 3.57669,6.791049 0.73036,3.68657 -0.31404,22.41046 12.28705,-2.61941 24.45421,-3.39553 0.95012,-20.17911 -0.18383,-25.902994 -0.57659,-2.910449 1.36371,-2.910449 1.64926,0 4.47641,3.007464 2.82715,3.007465 3.48061,6.305974 0.63423,3.201495 -0.46414,19.694035 4.59723,0.67911 5.00083,2.71642 0.3844,1.9403 -5.38069,3.2015 -0.83662,11.44776 -1.1162,15.91045 -0.20225,4.36568 -0.36248,6.98508 -0.16017,2.61941 -0.41738,5.23881 -0.3396,5.14179 -1.40672,5.14179 -1.3582,0 -3.64353,-2.23134 -2.20756,-2.32836 -2.68803,-4.75373 -0.48048,-2.42538 0.88147,-24.93285 -13.77979,1.9403 -24.63085,4.46269 -0.35832,5.04477 -0.67834,9.79851 -0.24161,4.65672 -0.40184,7.27612 -0.16017,2.61941 -0.41738,5.23881 -0.3396,5.14179 -1.30972,5.14179 z"
         style="font-family:Kalam;-inkscape-font-specification:Kalam;stroke-width:1.01057"
         id="path65160-8" />
      <path
         d="m 270.53343,124.78039 q 0.71072,5.088 -4.40136,8.352 -5.02948,3.168 -12.03748,3.168 -6.912,0 -12.79056,-1.536 -0.75396,4.224 -0.28464,7.584 0.45592,3.264 2.72672,5.088 2.36676,1.824 7.07076,1.824 4.8,0 9.56404,-1.632 4.84664,-1.728 5.32664,-1.728 2.496,0 2.7642,1.92 0.36203,2.592 -5.06484,5.664 -5.44032,2.976 -11.00832,2.976 -7.488,0 -12.80884,-4.416 -5.33424,-4.512 -6.28632,-11.328 -0.95208,-6.816 1.6634,-14.208 2.60204,-7.488 7.65132,-12.576 5.04932,-5.088 10.71332,-5.088 5.664,0 11.02292,5.376 5.45492,5.376 6.17904,10.56 z m -15.6626,-8.352 q -3.552,0 -6.86904,3.744 -3.33044,3.648 -5.25408,9.12 3.96068,0.864 8.85668,0.864 4.896,0 8.32944,-1.536 3.42004,-1.632 3.05796,-4.224 -0.36203,-2.592 -3.13752,-5.28 -2.67944,-2.688 -4.98344,-2.688 z"
         style="font-family:Kalam;-inkscape-font-specification:Kalam"
         id="path65162-8" />
      <path
         d="m 315.65762,124.78039 q -0.53304,5.088 -6.44298,8.352 -5.80389,3.168 -12.81189,3.168 -6.912,0 -12.41508,-1.536 -1.78653,4.224 -2.13852,7.584 -0.34194,3.264 1.48296,5.088 1.92093,1.824 6.62493,1.824 4.8,0 9.96297,-1.632 5.26902,-1.728 5.74902,-1.728 2.496,0 2.29485,1.92 -0.27152,2.592 -6.44937,5.664 -6.16776,2.976 -11.73576,2.976 -7.488,0 -11.72937,-4.416 -4.23132,-4.512 -3.51726,-11.328 0.71406,-6.816 5.13645,-14.208 4.43247,-7.488 10.72551,-12.576 6.29301,-5.088 11.95701,-5.088 5.664,0 9.70881,5.376 4.14081,5.376 3.59772,10.56 z m -13.62105,-8.352 q -3.552,0 -7.78422,3.744 -4.22217,3.648 -7.48344,9.12 3.74949,0.864 8.64549,0.864 4.896,0 8.70492,-1.536 3.81897,-1.632 4.09053,-4.224 0.27152,-2.592 -1.84686,-5.28 -2.02242,-2.688 -4.32642,-2.688 z"
         style="font-family:Kalam;-inkscape-font-specification:Kalam"
         id="path65164-5" />
      <path
         d="m 360.36691,111.52553 c 0.45286,-1.024 0.8442,-1.728 1.17404,-2.112 0.32982,-0.384 0.91073,-0.576 1.74273,-0.576 0.896,0 1.79205,0.832 2.68813,2.496 0.96008,1.664 1.29246,3.264 0.99713,4.8 -0.15994,0.832 -5.10905,5.76686 -9.66003,14.79086 -4.55095,9.024 -8.10508,16.192 -10.66238,21.504 -1.2848,2.688 -2.63119,4.032 -4.03919,4.032 -0.832,0 -1.46833,-0.352 -1.90899,-1.056 -0.44063,-0.704 -0.48253,-1.984 -0.12571,-3.84 0.35684,-1.856 1.73885,-5.216 4.14599,-10.08 -3.52472,4.352 -7.12578,7.936 -10.8032,10.752 -3.6774,2.816 -6.82809,4.224 -9.45209,4.224 -2.56,0 -4.75822,-1.216 -6.59464,-3.648 -1.83642,-2.432 -2.50853,-4.928 -2.01637,-7.488 1.16896,-6.08 4.38708,-13.664 9.65435,-22.752 5.34358,-9.152 9.19936,-13.728 11.56736,-13.728 1.152,0 2.03942,0.544 2.66224,1.632 0.69912,1.024 0.91949,2.208 0.66108,3.552 -0.11071,0.576 -1.37463,2.656 -3.79169,6.24 -2.40476,3.52 -4.93257,7.68 -7.58342,12.48 -2.63856,4.736 -4.30238,8.896 -4.99144,12.48 -0.19684,1.024 -0.0429,1.888 0.46165,2.592 0.51696,0.64 1.22345,0.96 2.11945,0.96 2.432,0 5.7242,-2.144 9.87661,-6.432 4.21642,-4.288 8.95248,-9.23388 12.7996,-14.92988 3.84711,-5.696 8.7996,-11.02898 11.07879,-15.89298 z"
         style="font-family:Kalam;-inkscape-font-specification:Kalam"
         id="path65166-0"
         sodipodi:nodetypes="csscsscssscsssscscsccscscsc" />
      <path
         d="m 414.53826,108.8482 c 2.3936,0 4.19192,0.5989 5.59679,2.1469 1.56605,3.50562 -4.94805,3.82186 -7.19196,4.42501 -3.07758,0.78642 -15.86494,2.48028 -20.31791,4.27228 -4.38253,1.792 -7.0123,3.68 -7.88933,5.664 -0.65067,1.472 1.47023,4 6.3627,7.584 1.84162,1.408 3.25294,3.232 4.23394,5.472 1.07971,2.176 1.05371,4.544 -0.0779,7.104 -1.10337,2.496 -4.12856,4.96 -9.07565,7.392 -4.84835,2.368 -9.84213,3.552 -14.98133,3.552 -5.0688,0 -10.22754,-0.48376 -12.88953,-2.5123 -2.88182,-2.24 -4.40241,-3.19595 -3.52537,-5.17995 0.36779,-0.832 0.86191,-1.472 1.48234,-1.92 0.71913,-0.512 1.44036,-0.39828 2.14436,-0.39828 0.704,0 1.80617,0.62233 2.87799,1.27678 2.88435,1.76113 6.54654,1.99677 10.62974,1.99677 4.1536,0 7.76555,-1.07102 9.96375,-1.90302 2.2265,-0.896 3.65094,-2.048 4.27331,-3.456 0.65071,-1.472 0.30899,-3.008 -1.02545,-4.608 -1.30601,-1.664 -2.90811,-3.136 -4.80632,-4.416 -1.82777,-1.28 -3.35225,-2.848 -4.57339,-4.704 -1.22117,-1.856 -1.40739,-3.744 -0.55866,-5.664 1.49943,-3.392 5.97704,-6.912 13.43281,-10.56 7.55449,-3.712 22.04306,-5.56419 25.91506,-5.56419 z"
         style="font-family:Kalam;-inkscape-font-specification:Kalam;stroke-width:1.04881"
         id="path65168-9"
         sodipodi:nodetypes="scccsccscscscssscsccsscs" />
    </g>
  </g>
</svg>
